<svg id="Capa_1" enable-background="new 0 0 510 510" height="512" viewBox="0 0 510 510" width="512" xmlns="http://www.w3.org/2000/svg"><g><g><path d="m130.255 60.852-21.383-60.852c-15.155 0-32.525 0-47.679 0-5.807 10.617-16.193 15.564-16.193 33.32 0 24.63 20 24.63 20 49.26 0 24.631-20 24.631-20 49.262 0 24.629 20 24.63 20 49.26s-20 24.631-20 49.262c0 24.629 20 24.629 20 49.258 0 24.63-20 24.63-20 49.26 0 24.631 20 24.631 20 49.262s-20 24.631-20 49.261c0 24.634 20 24.634 20 49.267 0 17.763-10.39 22.713-16.194 33.33h66.958l14.236-12.835z" fill="#ff7c45"/><path d="m151.227 510h47.578c5.807-10.621 16.195-15.568 16.195-33.33 0-24.633-20-24.633-20-49.267 0-24.63 20-24.63 20-49.261s-20-24.631-20-49.262c0-24.629 20-24.63 20-49.26 0-24.629-20-24.629-20-49.258 0-24.631 20-24.632 20-49.262s-20-24.631-20-49.26c0-24.631 20-24.631 20-49.262 0-24.63-20-24.63-20-49.26 0-17.758 10.388-22.707 16.193-33.32-18.166 0-56.187 0-66.779 0l-14.414 8.002v487.5z" fill="#ff415c"/><path d="m108.872 0c-5.263 12.523-4.89 27.861-.608 39.108 2.706 7.106 6.615 12.206 9.832 16.403 4.622 6.03 6.905 9.152 6.905 16.965 0 3.91-.592 6.671-1.723 9.157-2.954 6.497-10.51 12.38-15.014 24.212-4.321 11.352-4.418 26.02 0 37.625 2.706 7.107 6.615 12.207 9.832 16.404 4.612 6.016 6.905 9.148 6.905 16.964 0 3.91-.592 6.671-1.723 9.157-4.094 9.005-18.278 18.085-18.278 43.026 0 24.917 14.206 34.069 18.277 43.023 1.13 2.485 1.723 5.246 1.723 9.156 0 3.909-.592 6.67-1.723 9.156-2.954 6.498-10.51 12.379-15.014 24.211-4.321 11.352-4.418 26.02 0 37.626 2.706 7.107 6.615 12.207 9.832 16.404 4.612 6.017 6.905 9.149 6.905 16.965 0 3.91-.592 6.671-1.723 9.157-2.935 6.455-10.522 12.413-15.014 24.212-4.321 11.352-4.418 26.021 0 37.626 4.5 11.824 12.076 17.751 15.014 24.215 1.13 2.487 1.723 5.249 1.723 9.16 0 9.328-3.368 12.084-9.236 20.066h14.236l3.125-29 .875-225.998-1.875-222.375-2.125-32.625c-7.39 0-13.739 0-21.128 0z" fill="#ffe5b6"/><path d="m151.737 471.119c-4.501-11.824-12.076-17.751-15.014-24.215-1.13-2.486-1.723-5.248-1.723-9.159 0-7.772 2.26-10.905 6.905-16.965 3.217-4.197 7.126-9.298 9.832-16.404 4.321-11.352 4.418-26.02 0-37.625-4.497-11.812-12.08-17.757-15.014-24.212-1.13-2.486-1.723-5.248-1.723-9.158 0-7.771 2.26-10.905 6.905-16.964 3.217-4.197 7.126-9.297 9.832-16.403 4.321-11.352 4.418-26.02 0-37.625-4.501-11.822-12.076-17.748-15.014-24.211-1.13-2.486-1.723-5.247-1.723-9.156 0-3.91.592-6.672 1.723-9.158 4.093-9.005 18.277-18.084 18.277-43.025 0-24.921-14.202-34.061-18.277-43.023-1.13-2.486-1.723-5.247-1.723-9.157 0-7.771 2.26-10.906 6.905-16.965 3.217-4.197 7.126-9.298 9.832-16.404 4.321-11.352 4.418-26.02 0-37.625-4.501-11.822-12.076-17.748-15.014-24.211-1.13-2.486-1.723-5.248-1.723-9.158 0-9.478 3.516-12.227 9.414-20.295-5.041 0-9.373 0-14.414 0v510h21.227c5.142-12.42 4.781-27.659.51-38.882z" fill="#fec985"/></g><g><path d="m380.255 60.852-21.383-60.852c-15.154 0-32.524 0-47.679 0-5.807 10.617-16.193 15.564-16.193 33.32 0 24.63 20 24.63 20 49.26 0 24.631-20 24.631-20 49.262 0 24.629 20 24.63 20 49.26s-20 24.631-20 49.262c0 24.629 20 24.629 20 49.258 0 24.63-20 24.63-20 49.26 0 24.631 20 24.631 20 49.262s-20 24.631-20 49.261c0 24.634 20 24.634 20 49.267 0 17.763-10.39 22.713-16.194 33.33h66.958l14.236-12.835z" fill="#ff7c45"/><path d="m401.227 510h47.578c5.807-10.621 16.195-15.568 16.195-33.33 0-24.633-20-24.633-20-49.267 0-24.63 20-24.63 20-49.261s-20-24.631-20-49.262c0-24.629 20-24.63 20-49.26 0-24.629-20-24.629-20-49.258 0-24.631 20-24.632 20-49.262s-20-24.631-20-49.26c0-24.631 20-24.631 20-49.262 0-24.63-20-24.63-20-49.26 0-17.758 10.388-22.707 16.193-33.32-18.166 0-56.187 0-66.779 0l-14.414 8.002v487.5z" fill="#ff415c"/><path d="m358.872 0c-5.263 12.523-4.89 27.861-.608 39.108 2.706 7.106 6.615 12.206 9.832 16.403 4.622 6.03 6.905 9.152 6.905 16.965 0 3.91-.592 6.671-1.723 9.157-2.954 6.497-10.51 12.38-15.014 24.212-4.321 11.352-4.418 26.02 0 37.625 2.706 7.107 6.615 12.207 9.832 16.404 4.612 6.016 6.905 9.148 6.905 16.964 0 3.91-.592 6.671-1.723 9.157-4.094 9.005-18.278 18.085-18.278 43.026 0 24.917 14.206 34.069 18.277 43.023 1.13 2.485 1.723 5.246 1.723 9.156 0 3.909-.592 6.67-1.723 9.156-2.954 6.498-10.51 12.379-15.014 24.211-4.321 11.352-4.418 26.02 0 37.626 2.706 7.107 6.615 12.207 9.832 16.404 4.612 6.017 6.905 9.149 6.905 16.965 0 3.91-.592 6.671-1.723 9.157-2.934 6.455-10.522 12.413-15.014 24.212-4.321 11.352-4.417 26.021 0 37.626 4.501 11.824 12.076 17.751 15.014 24.215 1.13 2.487 1.723 5.249 1.723 9.16 0 9.328-3.368 12.084-9.236 20.066h14.236l3.125-29 .875-225.998-1.875-222.375-2.125-32.625c-7.39 0-13.739 0-21.128 0z" fill="#ffe5b6"/><path d="m401.737 471.119c-4.5-11.824-12.076-17.751-15.014-24.215-1.13-2.486-1.723-5.248-1.723-9.159 0-7.772 2.26-10.905 6.905-16.965 3.217-4.197 7.126-9.298 9.832-16.404 4.321-11.352 4.418-26.02 0-37.625-4.497-11.812-12.08-17.757-15.014-24.212-1.13-2.486-1.723-5.248-1.723-9.158 0-7.771 2.26-10.905 6.905-16.964 3.217-4.197 7.126-9.297 9.832-16.403 4.321-11.352 4.418-26.02 0-37.625-4.501-11.822-12.076-17.748-15.014-24.211-1.13-2.486-1.723-5.247-1.723-9.156 0-3.91.592-6.672 1.723-9.158 4.093-9.005 18.277-18.084 18.277-43.025 0-24.921-14.202-34.061-18.277-43.023-1.13-2.486-1.723-5.247-1.723-9.157 0-7.771 2.26-10.906 6.905-16.965 3.217-4.197 7.126-9.298 9.832-16.404 4.321-11.352 4.418-26.02 0-37.625-4.5-11.822-12.076-17.748-15.014-24.211-1.13-2.486-1.723-5.248-1.723-9.158 0-9.478 3.516-12.227 9.414-20.295-5.041 0-9.373 0-14.414 0v510h21.227c5.142-12.42 4.781-27.659.51-38.882z" fill="#fec985"/></g></g></svg>