<svg id="Capa_1" enable-background="new 0 0 512.195 512.195" height="512" viewBox="0 0 512.195 512.195" width="512" xmlns="http://www.w3.org/2000/svg"><g><path d="m512.194 197.407c-.004-34.368-11.954-67.975-33.65-94.629-21.695-26.654-52.177-45.178-85.829-52.156l-14.438-2.994c-40.112-8.318-81.223-12.536-122.188-12.536-40.973 0-82.089 4.219-122.206 12.54l-14.407 2.988c-33.654 6.98-64.137 25.505-85.832 52.163-21.696 26.657-33.644 60.267-33.644 94.637v6.664c0 67.828 55.183 123.01 123.011 123.01h39.302v150.01h187.569v-150.01h39.303c32.859 0 63.752-12.797 86.986-36.033s36.027-54.129 36.024-86.989z" fill="#ffecd2"/><path d="m512.194 197.407c-.004-34.368-11.954-67.975-33.65-94.629-21.695-26.654-52.177-45.178-85.829-52.156l-14.438-2.994c-40.11-8.318-81.218-12.536-122.18-12.536v442.012h93.784v-150.01h39.303c32.859 0 63.752-12.797 86.986-36.033s36.027-54.129 36.024-86.989z" fill="#ffe0b8"/><path d="m389.185 203.771h-39.303v123.323h39.303c34.001 0 61.662-27.661 61.662-61.662 0-34-27.661-61.661-61.662-61.661z" fill="#814f2b"/><path d="m61.349 265.433c0 34 27.661 61.661 61.662 61.661h39.302v-123.323h-39.302c-34.001 0-61.662 27.661-61.662 61.662z" fill="#814f2b"/><path d="m389.185 203.771h-39.303v123.323h39.303c34.001 0 61.662-27.661 61.662-61.662 0-34-27.661-61.661-61.662-61.661z" fill="#5c3629"/></g></svg>