<svg id="Layer_1" enable-background="new 0 0 512 512" height="512" viewBox="0 0 512 512" width="512" xmlns="http://www.w3.org/2000/svg"><g><g><path d="m256 115.746c-77.461 0-140.254 62.794-140.254 140.254s62.794 140.254 140.254 140.254 140.254-62.794 140.254-140.254-62.793-140.254-140.254-140.254zm0 196.409c-31.013 0-56.153-25.142-56.153-56.155s25.141-56.154 56.153-56.154c31.013 0 56.153 25.142 56.153 56.154 0 31.013-25.14 56.155-56.153 56.155z" fill="#9b2062"/><g><path d="m256 119.982c-75.12 0-136.019 60.897-136.019 136.018s60.899 136.018 136.019 136.018 136.019-60.897 136.019-136.018-60.899-136.018-136.019-136.018zm0 192.173c-31.013 0-56.153-25.142-56.153-56.155s25.141-56.154 56.153-56.154c31.013 0 56.153 25.142 56.153 56.154 0 31.013-25.14 56.155-56.153 56.155z" fill="#cc7e9a"/><path d="m256.001 392.955c-75.52 0-136.958-61.436-136.958-136.955s61.438-136.955 136.958-136.955c75.518 0 136.956 61.437 136.956 136.955s-61.438 136.955-136.956 136.955zm0-272.033c-74.484 0-135.081 60.597-135.081 135.078 0 74.48 60.597 135.078 135.081 135.078 74.482 0 135.079-60.597 135.079-135.078 0-74.48-60.597-135.078-135.079-135.078zm0 192.171c-31.481 0-57.092-25.612-57.092-57.092 0-31.481 25.611-57.092 57.092-57.092s57.092 25.611 57.092 57.092c0 31.48-25.612 57.092-57.092 57.092zm0-112.308c-30.445 0-55.215 24.768-55.215 55.215s24.77 55.215 55.215 55.215 55.215-24.768 55.215-55.215-24.77-55.215-55.215-55.215z" fill="#c48fa0"/></g><path d="m256 133.473c-67.669 0-122.528 54.857-122.528 122.527 0 67.671 54.859 122.527 122.528 122.527s122.528-54.856 122.528-122.527c0-67.67-54.859-122.527-122.528-122.527z" fill="#f4ced9"/></g><path d="m256 162.803c-51.471 0-93.197 41.725-93.197 93.197s41.726 93.197 93.197 93.197 93.198-41.725 93.198-93.197c0-51.471-41.727-93.197-93.198-93.197z" fill="#fcecf3"/><path d="m256 199.846c-31.013 0-56.154 25.141-56.154 56.154 0 31.014 25.142 56.155 56.154 56.155s56.155-25.141 56.155-56.155c0-31.013-25.142-56.154-56.155-56.154z" fill="#fff"/><path d="m256 218.876c-20.503 0-37.125 16.621-37.125 37.124s16.622 37.124 37.125 37.124 37.125-16.621 37.125-37.124-16.622-37.124-37.125-37.124z" fill="#fff"/><path d="m256 233.541c-12.404 0-22.459 10.055-22.459 22.459s10.056 22.459 22.459 22.459c12.404 0 22.459-10.055 22.459-22.459s-10.055-22.459-22.459-22.459z" fill="#fffacf"/><path d="m256 246.481c-5.257 0-9.519 4.262-9.519 9.519 0 5.258 4.262 9.519 9.519 9.519s9.519-4.262 9.519-9.519-4.262-9.519-9.519-9.519z" fill="#dce8a1"/><g fill="#c48fa0"><path d="m256.003 133.567s-3 .165-8.628.476c-1.403.114-2.989.083-4.698.341-1.708.27-3.573.563-5.588.88-2.007.35-4.193.583-6.471 1.095-2.262.592-4.666 1.222-7.207 1.888-10.037 2.905-22.163 7.415-34.281 15.65-12.126 8.082-24.509 19.428-34.441 34.411-9.823 14.999-17.046 33.511-19.623 53.904-.411 2.535-.353 5.137-.553 7.73-.06 2.587-.463 5.241-.245 7.823.313 5.285.255 10.702 1.29 15.98 1.247 10.704 4.655 21.344 8.959 31.669 4.421 10.343 10.716 19.977 17.913 29.01 7.445 8.866 16.256 16.712 25.992 23.394 9.889 6.487 20.803 11.433 32.174 15.048 11.472 3.391 23.432 4.901 35.404 5.147 12.012-.337 23.901-1.933 35.329-5.399 11.322-3.692 22.162-8.703 31.961-15.234 9.65-6.71 18.493-14.428 25.925-23.256 7.197-8.976 13.504-18.556 17.945-28.854 4.327-10.287 7.755-20.867 9.034-31.58 1.05-5.299 1.001-10.653 1.33-15.902.23-2.529-.169-5.247-.22-7.836-.194-2.601-.131-5.241-.534-7.763-2.493-20.294-9.702-38.867-19.507-53.847-9.913-14.984-22.279-26.345-34.4-34.43-12.114-8.238-24.238-12.75-34.273-15.657-2.54-.666-4.944-1.297-7.206-1.891-2.279-.512-4.466-.746-6.475-1.097-2.016-.317-3.881-.612-5.59-.881-1.71-.259-3.292-.228-4.694-.342-5.625-.311-8.622-.477-8.622-.477zm-.005-.188s3.008.137 8.645.394c1.405.102 2.992.055 4.708.298 1.716.253 3.589.53 5.613.829 2.018.333 4.217.546 6.509 1.038 2.276.574 4.694 1.182 7.251 1.827 10.105 2.822 22.339 7.239 34.619 15.415 12.288 8.018 24.921 19.303 35.136 34.348 10.127 15.048 17.719 33.731 20.133 54.537.403 2.584.335 5.18.526 7.795.049 2.642.441 5.188.212 7.955-.336 5.328-.3 10.759-1.368 16.137-1.315 10.87-4.802 21.604-9.207 32.036-4.52 10.442-10.926 20.155-18.238 29.247-7.558 8.929-16.501 16.792-26.337 23.516-9.987 6.534-21.006 11.512-32.484 15.144-11.573 3.407-23.682 4.919-35.716 5.147-12.072-.319-24.111-1.917-35.639-5.4-11.427-3.708-22.373-8.751-32.269-15.329-9.75-6.752-18.727-14.487-26.271-23.378-7.312-9.034-13.731-18.694-18.27-29.092-4.429-10.393-7.935-21.067-9.282-31.946-1.085-5.4-1.057-10.767-1.41-16.06-.24-2.714.148-5.324.19-7.967.185-2.624.111-5.258.507-7.828 2.33-20.707 9.91-39.452 20.017-54.48 10.196-15.046 22.811-26.345 35.094-34.368 12.277-8.177 24.509-12.596 34.612-15.42 2.555-.645 4.974-1.255 7.25-1.829 2.293-.492 4.494-.708 6.513-1.04 2.025-.299 3.899-.576 5.615-.83 1.717-.244 3.299-.197 4.704-.298 5.631-.26 8.637-.398 8.637-.398z"/><path d="m256.003 149.095s-2.62.146-7.535.421c-1.225.1-2.609.073-4.102.301-1.491.235-3.118.493-4.878.771-1.752.307-3.66.511-5.648.96-1.975.519-4.073 1.071-6.291 1.653-8.76 2.543-19.343 6.486-29.916 13.682-10.578 7.061-21.378 16.972-30.035 30.052-8.561 13.096-14.845 29.248-17.112 47.036-.359 2.213-.31 4.483-.487 6.745-.053 2.256-.406 4.575-.216 6.822.271 4.616.218 9.348 1.119 13.95 1.082 9.336 4.053 18.627 7.803 27.638 3.853 9.029 9.343 17.44 15.619 25.328 6.496 7.74 14.179 14.599 22.68 20.429 8.636 5.66 18.165 9.973 28.092 13.124 10.015 2.955 20.453 4.268 30.903 4.479 10.488-.301 20.857-1.7 30.827-4.731 9.877-3.228 19.332-7.605 27.877-13.309 8.416-5.858 16.132-12.59 22.615-20.292 6.277-7.831 11.779-16.19 15.652-25.172 3.773-8.975 6.764-18.203 7.878-27.549.916-4.623.872-9.293 1.159-13.872.201-2.194-.148-4.577-.193-6.835-.17-2.271-.115-4.579-.467-6.778-2.182-17.689-8.454-33.902-16.996-46.979-8.637-13.08-19.42-23.007-29.993-30.072-10.569-7.197-21.149-11.143-29.908-13.688-2.217-.583-4.315-1.134-6.29-1.654-1.989-.449-3.899-.654-5.653-.961-1.76-.279-3.388-.537-4.88-.773-1.493-.227-2.873-.201-4.098-.301-4.91-.279-7.526-.425-7.526-.425zm-.005-.188s2.628.118 7.551.339c1.228.087 2.613.046 4.112.257 1.499.221 3.135.461 4.904.72 1.763.289 3.684.475 5.686.903 1.988.5 4.102 1.031 6.334 1.592 8.829 2.458 19.519 6.31 30.255 13.446 10.741 6.998 21.79 16.848 30.729 29.99 8.864 13.145 15.519 29.467 17.621 47.669 1.999 17.972-.556 37.732-8.604 55.875-3.952 9.128-9.553 17.618-15.945 25.565-6.608 7.804-14.425 14.679-23.026 20.551-8.734 5.706-18.367 10.052-28.4 13.22-10.116 2.971-20.703 4.286-31.214 4.479-10.548-.283-21.067-1.684-31.137-4.732-9.983-3.244-19.543-7.654-28.186-13.404-8.515-5.9-16.364-12.647-22.959-20.414-6.394-7.89-12.007-16.327-15.978-25.41-3.875-9.081-6.944-18.404-8.126-27.916-.951-4.724-.928-9.407-1.238-14.03-.212-2.377.125-4.655.162-6.966.16-2.294.094-4.596.439-6.843 2.019-18.102 8.66-34.486 17.506-47.613 8.92-13.143 19.952-23.007 30.688-30.009 10.731-7.137 21.419-10.992 30.246-13.453 2.233-.561 4.346-1.092 6.334-1.593 2.004-.429 3.926-.615 5.69-.905 1.769-.26 3.406-.501 4.906-.722 1.499-.211 2.881-.17 4.108-.258 4.916-.219 7.542-.338 7.542-.338z"/><path d="m256.003 162.897s-2.281.129-6.563.372c-2.152.022-4.762.416-7.819.939-1.526.268-3.187.448-4.918.839-1.719.453-3.546.935-5.476 1.444-7.626 2.22-16.837 5.66-26.035 11.931-9.204 6.154-18.596 14.79-26.118 26.179-7.438 11.405-12.889 25.458-14.88 40.931-.313 1.925-.271 3.9-.426 5.868-.048 1.962-.356 3.984-.193 5.933.235 4.019.185 8.145.967 12.146.937 8.12 3.518 16.209 6.777 24.054 3.348 7.86 8.122 15.185 13.581 22.056 5.651 6.74 12.333 12.721 19.736 17.795 7.521 4.923 15.819 8.673 24.462 11.413 8.719 2.568 17.806 3.706 26.901 3.885 9.133-.271 18.151-1.494 26.825-4.137 8.594-2.816 16.818-6.631 24.248-11.599 7.317-5.101 14.032-10.954 19.671-17.657 5.46-6.813 10.246-14.085 13.614-21.9 6.858-15.567 9.027-32.359 7.282-47.88-1.906-15.374-7.343-29.488-14.762-40.875-7.505-11.39-16.878-20.04-26.077-26.198-9.195-6.273-18.403-9.716-26.029-11.939-1.93-.509-3.756-.991-5.475-1.445-1.732-.392-3.395-.572-4.922-.841-3.06-.524-5.67-.918-7.817-.941-4.276-.243-6.554-.373-6.554-.373zm-.005-.187s2.29.101 6.578.29c2.155-.004 4.777.357 7.856.845 1.536.25 3.209.411 4.954.783 1.733.434 3.575.895 5.522 1.382 7.694 2.135 17.012 5.484 26.373 11.696 9.367 6.09 19.008 14.665 26.813 26.116 7.742 11.454 13.563 25.677 15.39 41.565 1.74 15.662-.488 32.902-7.509 48.721-3.448 7.96-8.332 15.364-13.907 22.293-5.763 6.804-12.578 12.802-20.082 17.918-7.619 4.97-16.022 8.753-24.771 11.508-8.82 2.585-18.056 3.725-27.213 3.885-9.193-.251-18.361-1.476-27.135-4.137-8.699-2.831-17.027-6.679-24.557-11.693-7.417-5.144-14.265-11.014-20.015-17.781-5.576-6.871-10.473-14.222-13.94-22.137-3.383-7.914-6.061-16.036-7.099-24.333-.83-4.122-.813-8.197-1.086-12.224-.185-2.08.108-4.06.137-6.077.139-2 .081-4.008.38-5.967 1.743-15.788 7.551-30.073 15.273-41.508 7.786-11.452 17.41-20.041 26.772-26.136 9.357-6.212 18.674-9.564 26.366-11.702 1.946-.488 3.787-.949 5.52-1.383 1.745-.373 3.42-.534 4.958-.785 3.082-.489 5.703-.85 7.854-.847 4.28-.191 6.568-.292 6.568-.292z"/><path d="m256.003 178.425s-1.901.104-5.469.299c-1.795.015-3.97.338-6.519.769-1.272.222-2.656.368-4.1.691-1.434.375-2.958.773-4.568 1.194-6.372 1.812-14.02 4.771-21.66 10.017-7.651 5.157-15.393 12.405-21.652 21.868-6.201 9.472-10.755 21.154-12.419 34.028-.302 3.21-.526 6.543-.524 9.815.191 3.349.149 6.792.795 10.116.772 6.752 2.915 13.491 5.621 20.023 2.78 6.546 6.748 12.648 11.288 18.375 4.702 5.615 10.256 10.609 16.425 14.831 6.267 4.095 13.181 7.213 20.379 9.488 7.262 2.133 14.828 3.074 22.399 3.217 7.61-.235 15.107-1.261 22.324-3.469 7.148-2.352 13.987-5.534 20.164-9.673 6.083-4.253 11.652-9.139 16.327-14.72 4.526-5.676 8.489-11.728 11.272-18.228 5.657-12.948 7.537-26.864 6.097-39.795-1.555-12.768-6.059-24.529-12.217-34.008-6.226-9.493-14.026-16.691-21.663-21.852-7.637-5.247-15.283-8.205-21.653-10.022-1.609-.422-3.133-.82-4.566-1.196-1.445-.324-2.831-.472-4.104-.694-2.552-.432-4.727-.757-6.516-.773-3.563-.196-5.461-.301-5.461-.301zm-.005-.187s1.908.087 5.483.251c1.796.001 3.98.305 6.545.717 1.279.211 2.674.347 4.127.66 1.443.364 2.977.75 4.598 1.159 6.397 1.816 14.19 4.518 22.018 9.676 7.834 5.046 15.881 12.203 22.415 21.746 6.476 9.554 11.355 21.409 12.91 34.694 1.464 13.059-.321 27.503-6.23 40.712-2.897 6.647-6.993 12.825-11.664 18.602-4.826 5.674-10.533 10.666-16.802 14.927-6.366 4.143-13.383 7.293-20.688 9.584-7.363 2.148-15.078 3.091-22.711 3.216-7.67-.215-15.317-1.244-22.633-3.469-7.254-2.367-14.198-5.582-20.473-9.768-6.183-4.293-11.903-9.175-16.704-14.817-4.657-5.726-8.747-11.854-11.647-18.455-2.83-6.601-5.07-13.373-5.943-20.302-.697-3.445-.685-6.838-.915-10.194-.043-3.433.15-6.758.423-10.056 1.446-13.18 6.274-25.114 12.708-34.675 6.501-9.573 14.605-16.679 22.427-21.731 7.824-5.158 15.617-7.858 22.01-9.68 1.621-.41 3.154-.797 4.597-1.162 1.454-.313 2.849-.45 4.13-.662 2.567-.413 4.752-.719 6.543-.72 3.569-.165 5.476-.253 5.476-.253z"/><path d="m256.003 199.94s-1.374.077-3.953.221c-1.298.013-2.869.249-4.709.564-1.858.215-3.943.717-6.259 1.371-4.605 1.309-10.114 3.485-15.611 7.289-5.508 3.742-11.056 9.003-15.547 15.829-4.452 6.834-7.712 15.251-8.896 24.518-1.022 9.2.055 19.442 4.143 28.798 1.993 4.725 4.845 9.133 8.111 13.273 3.386 4.056 7.379 7.682 11.837 10.725 4.53 2.948 9.524 5.19 14.721 6.821 5.242 1.529 10.702 2.198 16.162 2.292 5.499-.185 10.89-.939 16.086-2.543 5.147-1.708 10.066-4.013 14.506-7.006 4.372-3.073 8.38-6.591 11.739-10.614 3.253-4.09 6.1-8.448 8.096-13.127 4.056-9.325 5.428-19.313 4.389-28.644-1.125-9.16-4.329-17.65-8.737-24.493-4.458-6.856-10.064-12.066-15.558-15.813-5.495-3.806-11.003-5.98-15.604-7.294-2.315-.655-4.4-1.159-6.261-1.376-1.843-.316-3.414-.554-4.707-.567-2.577-.146-3.948-.224-3.948-.224zm-.005-.188s1.382.06 3.967.175c1.3-.002 2.881.215 4.737.511 1.873.195 3.977.674 6.315 1.305 4.63 1.312 10.284 3.232 15.97 6.947 5.692 3.633 11.544 8.801 16.31 15.708 4.727 6.918 8.306 15.502 9.43 25.179 1.062 9.458-.215 19.975-4.522 29.562-2.111 4.826-5.091 9.31-8.487 13.501-3.51 4.114-7.655 7.737-12.214 10.82-4.628 2.996-9.727 5.269-15.029 6.917-5.343 1.545-10.951 2.215-16.474 2.29-5.559-.166-11.098-.922-16.396-2.543-5.253-1.724-10.277-4.061-14.815-7.101-4.472-3.114-8.631-6.627-12.116-10.71-3.383-4.14-6.358-8.575-8.471-13.355-2.054-4.785-3.715-9.674-4.382-14.712-.52-2.51-.533-4.955-.707-7.383-.028-2.513.117-4.913.319-7.313 1.065-9.57 4.588-18.226 9.271-25.154 4.733-6.936 10.643-12.054 16.321-15.692 5.683-3.717 11.337-5.634 15.963-6.952 2.336-.631 4.44-1.112 6.317-1.311 1.859-.296 3.44-.514 4.734-.513 2.579-.114 3.959-.176 3.959-.176z"/><path d="m256.003 218.97s-.907.053-2.612.154c-.859.011-1.895.17-3.109.38-1.225.146-2.601.481-4.129.917-6.05 1.62-14.524 6.284-20.408 15.364-2.905 4.502-5.016 10.027-5.819 16.102-.675 6.02-.016 12.774 2.611 18.945 2.584 6.235 7.183 11.876 13.101 15.845 2.994 1.934 6.289 3.399 9.715 4.462 3.446.995 7.078 1.422 10.62 1.472 3.684-.142 7.172-.654 10.595-1.725 3.375-1.139 6.598-2.669 9.5-4.647 2.859-2.029 5.485-4.338 7.681-6.981 2.126-2.687 3.985-5.547 5.286-8.615 2.639-6.121 3.561-12.634 2.88-18.782-.732-5.971-2.82-11.561-5.7-16.049-2.906-4.501-6.511-8.004-10.118-10.5-3.6-2.53-7.217-4.012-10.254-4.88-1.526-.438-2.902-.774-4.13-.922-1.216-.212-2.254-.372-3.107-.384-1.699-.102-2.603-.156-2.603-.156zm-.005-.188s.915.038 2.626.107c.861-.004 1.907.137 3.137.328 1.241.125 2.634.438 4.184.851 3.065.867 6.828 2.093 10.62 4.534 3.789 2.384 7.759 5.742 10.951 10.339 3.159 4.609 5.556 10.309 6.311 16.79.705 6.275-.123 13.316-3.013 19.699-2.878 6.399-7.689 12.15-13.832 16.179-3.092 1.981-6.493 3.478-10.025 4.557-3.545 1.012-7.328 1.442-10.93 1.471-3.745-.121-7.382-.636-10.907-1.723-3.481-1.156-6.808-2.717-9.809-4.743-2.959-2.072-5.716-4.399-8.021-7.108-2.224-2.756-4.244-5.659-5.676-8.822-1.403-3.164-2.522-6.402-2.987-9.763-.355-1.681-.374-3.288-.497-4.895-.022-1.692.071-3.277.202-4.878.685-6.377 3.058-12.141 6.192-16.738 3.17-4.605 7.139-7.964 10.921-10.351 3.789-2.443 7.551-3.665 10.614-4.538 1.548-.414 2.941-.729 4.186-.856 1.232-.193 2.278-.335 3.134-.331 1.706-.07 2.619-.109 2.619-.109z"/><path d="m256.003 233.635s-.548.035-1.579.101c-1.031.075-2.523.261-4.362.808-3.65 1-8.683 3.928-12.123 9.389-1.712 2.704-2.938 5.999-3.446 9.614-.402 3.568-.088 7.644 1.447 11.345 1.491 3.766 4.253 7.174 7.804 9.575 1.801 1.166 3.785 2.049 5.848 2.691 2.09.57 4.255.79 6.409.788 4.356-.133 8.507-1.514 11.963-3.922 3.438-2.389 6.118-5.679 7.672-9.321 1.547-3.65 2.123-7.487 1.716-11.182-.438-3.511-1.64-6.871-3.327-9.562-3.405-5.473-8.444-8.399-12.088-9.405-1.831-.549-3.342-.74-4.361-.815-1.028-.068-1.573-.104-1.573-.104zm-.005-.188s.556.019 1.593.055c1.033.045 2.565.189 4.445.688 1.86.525 4.165 1.215 6.496 2.674 2.328 1.421 4.803 3.423 6.79 6.224 1.967 2.812 3.477 6.282 3.938 10.303.432 3.821-.051 8.185-1.849 12.098-1.787 3.928-4.754 7.453-8.538 9.902-3.789 2.41-8.395 3.666-12.874 3.58-4.513-.158-8.922-1.571-12.577-4.023-3.671-2.438-6.558-5.844-8.407-9.648-.88-1.924-1.585-3.886-1.895-5.956-.228-1.042-.253-2.003-.336-2.977-.018-1.059.036-2.014.114-3.003.39-3.918 1.878-7.452 3.82-10.251 1.965-2.807 4.437-4.812 6.759-6.235 2.329-1.461 4.633-2.149 6.49-2.679 1.873-.502 3.423-.651 4.444-.696 1.033-.035 1.587-.056 1.587-.056z"/></g></g></svg>