<svg id="Icons" height="512" viewBox="0 0 60 60" width="512" xmlns="http://www.w3.org/2000/svg"><path d="m30 1a29 29 0 1 0 29 29 29 29 0 0 0 -29-29zm-2.58 34.81-1.08 14.55a2 2 0 0 1 -2.57 1.77 23.01 23.01 0 0 1 -16.06-27.82 2.023 2.023 0 0 1 2.82-1.34l13.15 6.36 2.85 1.37a2.008 2.008 0 0 1 1.13 1.95zm1.45-9.17-2.61-1.78-12.06-8.21a1.987 1.987 0 0 1 -.31-3.05 22.962 22.962 0 0 1 32.22 0 1.987 1.987 0 0 1 -.31 3.05l-12.06 8.21-2.61 1.78a1.987 1.987 0 0 1 -2.26 0zm7.36 25.49a2 2 0 0 1 -2.57-1.77l-1.08-14.55-.24-3.16a2.008 2.008 0 0 1 1.13-1.95l2.85-1.37 13.15-6.36a2.023 2.023 0 0 1 2.82 1.34 23.01 23.01 0 0 1 -16.06 27.82z" fill="#ff5722"/><path d="m30 1q-.755 0-1.5.038a29 29 0 0 1 0 57.924q.746.038 1.5.038a29 29 0 0 0 0-58z" fill="#d84315"/><path d="m36.57 19.77-2.83 5.09-2.61 1.78a1.987 1.987 0 0 1 -2.26 0l-2.61-1.78-2.83-5.09a1 1 0 0 1 .35-1.34 12.041 12.041 0 0 1 6.22-1.43 12.041 12.041 0 0 1 6.22 1.43 1 1 0 0 1 .35 1.34z" fill="#f44335"/><path d="m36.22 18.43a12.041 12.041 0 0 0 -6.22-1.43c-.539 0-1.03.03-1.5.071a11.1 11.1 0 0 1 4.72 1.359 1 1 0 0 1 .35 1.34l-2.83 5.09-2.24 1.528.37.252a1.987 1.987 0 0 0 2.26 0l2.61-1.78 2.83-5.09a1 1 0 0 0 -.35-1.34z" fill="#c81e1e"/><path d="m45.8 16.65-12.06 8.21 2.83-5.09a1 1 0 0 0 -.35-1.34 12.041 12.041 0 0 0 -6.22-1.43 12.041 12.041 0 0 0 -6.22 1.43 1 1 0 0 0 -.35 1.34l2.83 5.09-12.06-8.21a1.987 1.987 0 0 1 -.31-3.05 22.962 22.962 0 0 1 32.22 0 1.987 1.987 0 0 1 -.31 3.05z" fill="#f44335"/><path d="m46.11 13.6a22.915 22.915 0 0 0 -16.11-6.6c-.5 0-1 .022-1.5.054a22.915 22.915 0 0 1 14.61 6.546 1.987 1.987 0 0 1 -.31 3.05l-7.233 4.924-1.827 3.286 12.06-8.21a1.987 1.987 0 0 0 .31-3.05z" fill="#c81e1e"/><path d="m53 30a23.033 23.033 0 0 1 -16.77 22.13 2 2 0 0 1 -2.57-1.77l-1.08-14.55 2.99 4.99a1 1 0 0 0 1.34.37 12.057 12.057 0 0 0 4.35-4.67 12.034 12.034 0 0 0 1.87-6.1 1 1 0 0 0 -.99-.97l-5.82-.1 13.15-6.36a2.023 2.023 0 0 1 2.82 1.34 23.219 23.219 0 0 1 .71 5.69z" fill="#f44335"/><path d="m52.29 24.31a2.023 2.023 0 0 0 -2.82-1.34l-.765.37a2.037 2.037 0 0 1 .585.97 22.988 22.988 0 0 1 -14.9 27.44 2.026 2.026 0 0 0 1.837.38 23.01 23.01 0 0 0 16.063-27.82z" fill="#c81e1e"/><path d="m27.42 35.81-1.08 14.55a2 2 0 0 1 -2.57 1.77 23.01 23.01 0 0 1 -16.06-27.82 2.023 2.023 0 0 1 2.82-1.34l13.15 6.36-5.82.1a1 1 0 0 0 -.99.97 12.034 12.034 0 0 0 1.87 6.1 12.057 12.057 0 0 0 4.35 4.67 1 1 0 0 0 1.34-.37z" fill="#f44335"/><path d="m24.43 40.8a1 1 0 0 1 -.407.36l-.683 9.2a1.952 1.952 0 0 1 -.733 1.39c.385.132.768.269 1.163.38a2 2 0 0 0 2.57-1.77l1.08-14.55z" fill="#c81e1e"/><path d="m27.66 32.65-.24 3.16-2.99 4.99a1 1 0 0 1 -1.34.37 12.057 12.057 0 0 1 -4.35-4.67 12.034 12.034 0 0 1 -1.87-6.1 1 1 0 0 1 .99-.97l5.82-.1 2.85 1.37a2.008 2.008 0 0 1 1.13 1.95z" fill="#f44335"/><path d="m26.53 30.7-2.85-1.37-2.9.05 2.75 1.32a2.008 2.008 0 0 1 1.13 1.95l-.24 3.16-2.654 4.43a8.4 8.4 0 0 0 1.324.93 1 1 0 0 0 1.34-.37l2.99-4.99.24-3.16a2.008 2.008 0 0 0 -1.13-1.95z" fill="#c81e1e"/><path d="m43.13 30.4a12.034 12.034 0 0 1 -1.87 6.1 12.057 12.057 0 0 1 -4.35 4.67 1 1 0 0 1 -1.34-.37l-2.99-4.99-.24-3.16a2.008 2.008 0 0 1 1.13-1.95l2.85-1.37 5.82.1a1 1 0 0 1 .99.97z" fill="#f44335"/><path d="m42.14 29.43-5.82-.1-.1.05 2.924.05a1 1 0 0 1 .99.97 12.034 12.034 0 0 1 -1.87 6.1 13.991 13.991 0 0 1 -3.026 3.74l.336.56a1 1 0 0 0 1.34.37 12.057 12.057 0 0 0 4.35-4.67 12.034 12.034 0 0 0 1.87-6.1 1 1 0 0 0 -.994-.97z" fill="#c81e1e"/><path d="m30 60a30 30 0 1 0 -30-30 30.034 30.034 0 0 0 30 30zm0-58a28 28 0 1 1 -28 28 28.032 28.032 0 0 1 28-28z"/><path d="m13.633 17.48 14.679 9.992a2.99 2.99 0 0 0 3.376 0l14.679-9.992a3.008 3.008 0 0 0 1.309-2.228 2.928 2.928 0 0 0 -.862-2.363 23.963 23.963 0 0 0 -33.629 0 2.927 2.927 0 0 0 -.861 2.362 3.008 3.008 0 0 0 1.309 2.229zm16.93 8.337a.993.993 0 0 1 -1.126 0l-2.416-1.644-2.729-4.884a11.108 11.108 0 0 1 5.708-1.289 11.079 11.079 0 0 1 5.7 1.284l-2.718 4.889zm-15.976-11.5a21.965 21.965 0 0 1 30.826 0 .934.934 0 0 1 .272.757 1.018 1.018 0 0 1 -.443.754l-8.584 5.843.786-1.415a2 2 0 0 0 -.712-2.684 12.992 12.992 0 0 0 -6.732-1.572 12.987 12.987 0 0 0 -6.741 1.576 2 2 0 0 0 -.7 2.679l.786 1.414-8.584-5.843a1.018 1.018 0 0 1 -.443-.754.931.931 0 0 1 .269-.756z"/><path d="m31.344 32.722 1.318 17.716a2.967 2.967 0 0 0 1.262 2.222 3.034 3.034 0 0 0 1.743.551 3.125 3.125 0 0 0 .838-.116 24 24 0 0 0 16.752-29.029 3.035 3.035 0 0 0 -1.665-2.01 2.971 2.971 0 0 0 -2.557.018l-16 7.724a2.983 2.983 0 0 0 -1.691 2.924zm18.556-8.847a.971.971 0 0 1 .427-.1 1 1 0 0 1 .418.094 1.042 1.042 0 0 1 .57.693 22 22 0 0 1 -15.351 26.607 1.048 1.048 0 0 1 -.892-.147.964.964 0 0 1 -.416-.732l-.771-10.359.833 1.39a2 2 0 0 0 2.68.724 12.99 12.99 0 0 0 4.727-5.045 12.983 12.983 0 0 0 2-6.625 2 2 0 0 0 -1.968-1.95l-1.63-.026zm-16 7.725 2.62-1.265 5.609.078a11.1 11.1 0 0 1 -1.737 5.587 11.07 11.07 0 0 1 -3.96 4.291l-2.877-4.8-.217-2.913a1 1 0 0 1 .562-.978z"/><path d="m23.5 53.1a3.131 3.131 0 0 0 .838.116 3.034 3.034 0 0 0 1.743-.551 2.967 2.967 0 0 0 1.262-2.222l1.318-17.716a2.982 2.982 0 0 0 -1.693-2.927l-16-7.724a2.975 2.975 0 0 0 -2.557-.018 3.035 3.035 0 0 0 -1.665 2.01 24 24 0 0 0 16.754 29.032zm3.167-20.522-.217 2.915-2.872 4.807a11.1 11.1 0 0 1 -3.97-4.3 11.062 11.062 0 0 1 -1.736-5.575l5.608-.09 2.62 1.265a1 1 0 0 1 .562.973zm-17.986-8.016a1.042 1.042 0 0 1 .57-.693 1 1 0 0 1 .418-.094.971.971 0 0 1 .427.1l9.372 4.525-1.631.026a2 2 0 0 0 -1.967 1.96 12.993 12.993 0 0 0 2.005 6.614 12.992 12.992 0 0 0 4.736 5.05 1.983 1.983 0 0 0 .954.244 2.006 2.006 0 0 0 1.719-.976l.831-1.387-.771 10.359a.964.964 0 0 1 -.416.732 1.039 1.039 0 0 1 -.891.147 22 22 0 0 1 -15.356-26.607z"/><circle cx="30" cy="12" r="1"/><path d="m26.225 13.436a1 1 0 1 0 -1.2-.749 1 1 0 0 0 1.2.749z"/><circle cx="22" cy="14" r="1"/><path d="m33.775 13.436a1 1 0 1 0 -.749-1.2 1 1 0 0 0 .749 1.2z"/><circle cx="38" cy="14" r="1"/><path d="m15.278 38.5a1 1 0 1 0 -.366 1.366 1 1 0 0 0 .366-1.366z"/><path d="m17.494 42.965a1 1 0 1 0 -1.414-.049 1 1 0 0 0 1.414.049z"/><path d="m20.644 45.794a1 1 0 1 0 -1.366-.366 1 1 0 0 0 1.366.366z"/><path d="m13.768 35.013a1 1 0 1 0 -.664 1.248 1 1 0 0 0 .664-1.248z"/><path d="m12.644 31.938a1 1 0 1 0 -1.366-.366 1 1 0 0 0 1.366.366z"/><path d="m45.088 39.866a1 1 0 1 0 -.366-1.366 1 1 0 0 0 .366 1.366z"/><path d="m46.9 36.261a1 1 0 1 0 -.664-1.249 1 1 0 0 0 .664 1.249z"/><circle cx="47.856" cy="31.072" r="1" transform="matrix(.966 -.259 .259 .966 -6.411 13.445)"/><path d="m42.457 41.551a1 1 0 1 0 1.413-.051 1 1 0 0 0 -1.413.051z"/><path d="m40.356 44.062a1 1 0 1 0 .366 1.366 1 1 0 0 0 -.366-1.366z"/></svg>